# xmcd
#
# Track frame offsets:
#	150
#	22647
#	46330
#	69336
#	87869
#	115144
#	128400
#	150638
#	168401
#	190079
#	204275
#	219432
#	232790
#	248290
#	253065
#
# Disc length: 3863 seconds
#
# Revision: 0
# Processed by: cddbd v1.4PL0 Copyright (c) Steve Scherf et al.
# Submitted via: dBpowerAMP V4.0
#
DISCID=aa0f150f
DTITLE=Wil Gravatt Band - Live At Whitey's
DYEAR=2000
DGENRE=Country
TTITLE0=Live At Whitey's Wil Gravatt Band - Suspicious Minds
TTITLE1=x
TTITLE2=Live At Whitey's Wil Gravatt Band - My Maria
TTITLE3=x
TTITLE4=x
TTITLE5=Wil Gravatt Band (w/ Walt Smith) - Johnny B. Goode
TTITLE6=Wil Gravatt Band - Folsom Prison Blues
TTITLE7=x
TTITLE8=Wil Gravatt Band - Up On Cripple Creek
TTITLE9=x
TTITLE10=Wil Gravatt Band - Lonesome Trucker
TTITLE11=x
TTITLE12=Wil Gravatt Band - Long Black Veil
TTITLE13=x
TTITLE14=Wil Gravatt Band - LAID
EXTD=The Wil Gravatt Band - Live At Whitey's
EXTT0=
EXTT1=
EXTT2=
EXTT3=
EXTT4=
EXTT5=
EXTT6=
EXTT7=
EXTT8=
EXTT9=
EXTT10=
EXTT11=
EXTT12=
EXTT13=
EXTT14=
PLAYORDER=
